<mxfile host="www.draw.io" modified="2019-12-01T14:58:08.139Z" agent="Mozilla/5.0 (Windows NT 10.0; Win64; x64; rv:70.0) Gecko/20100101 Firefox/70.0" etag="kw2aW5lvP1r3ZZC5GT_H" version="12.3.3" type="github" pages="1">
  <diagram id="OSLsdP8iQLulr4CwNtAH" name="第 1 页">
    <mxGraphModel dx="922" dy="632" grid="1" gridSize="10" guides="1" tooltips="1" connect="1" arrows="1" fold="1" page="1" pageScale="1" pageWidth="827" pageHeight="1169" math="1" shadow="0">
      <root>
        <mxCell id="0"/>
        <mxCell id="1" parent="0"/>
        <mxCell id="afy4YtuaF23AHe6gDH-i-1" value="&lt;p style=&quot;font-size: 32px&quot;&gt;&lt;font style=&quot;font-size: 32px&quot; face=&quot;Times New Roman&quot;&gt;$$x^{&amp;lt;1&amp;gt;}$$&lt;/font&gt;&lt;/p&gt;" style="text;html=1;strokeColor=none;fillColor=none;align=center;verticalAlign=middle;whiteSpace=wrap;rounded=0;textDirection=ltr;" vertex="1" parent="1">
          <mxGeometry x="140" y="440" width="80" height="40" as="geometry"/>
        </mxCell>
        <mxCell id="afy4YtuaF23AHe6gDH-i-33" value="" style="group" vertex="1" connectable="0" parent="1">
          <mxGeometry x="60" y="80" width="160" height="320" as="geometry"/>
        </mxCell>
        <mxCell id="afy4YtuaF23AHe6gDH-i-6" value="&lt;p style=&quot;font-size: 32px&quot;&gt;&lt;font style=&quot;font-size: 32px&quot; face=&quot;Times New Roman&quot;&gt;$$a^{&amp;lt;0&amp;gt;}$$&lt;/font&gt;&lt;/p&gt;" style="text;html=1;strokeColor=none;fillColor=none;align=center;verticalAlign=middle;whiteSpace=wrap;rounded=0;textDirection=ltr;" vertex="1" parent="afy4YtuaF23AHe6gDH-i-33">
          <mxGeometry x="10" y="160" width="60" height="40" as="geometry"/>
        </mxCell>
        <mxCell id="afy4YtuaF23AHe6gDH-i-10" value="&lt;p style=&quot;font-size: 32px&quot;&gt;&lt;font style=&quot;font-size: 32px&quot; face=&quot;Times New Roman&quot;&gt;$$y^{&amp;lt;1&amp;gt;}$$&lt;/font&gt;&lt;/p&gt;" style="text;html=1;strokeColor=none;fillColor=none;align=center;verticalAlign=middle;whiteSpace=wrap;rounded=0;textDirection=ltr;" vertex="1" parent="afy4YtuaF23AHe6gDH-i-33">
          <mxGeometry x="80" width="80" height="40" as="geometry"/>
        </mxCell>
        <mxCell id="afy4YtuaF23AHe6gDH-i-22" value="" style="group" vertex="1" connectable="0" parent="afy4YtuaF23AHe6gDH-i-33">
          <mxGeometry x="90" y="80" width="60" height="240" as="geometry"/>
        </mxCell>
        <mxCell id="afy4YtuaF23AHe6gDH-i-14" value="" style="rounded=0;whiteSpace=wrap;html=1;" vertex="1" parent="afy4YtuaF23AHe6gDH-i-22">
          <mxGeometry width="60" height="240" as="geometry"/>
        </mxCell>
        <mxCell id="afy4YtuaF23AHe6gDH-i-15" value="" style="ellipse;whiteSpace=wrap;html=1;aspect=fixed;strokeColor=#b85450;fillColor=#f8cecc;strokeWidth=2;" vertex="1" parent="afy4YtuaF23AHe6gDH-i-22">
          <mxGeometry x="10" y="12" width="40" height="40" as="geometry"/>
        </mxCell>
        <mxCell id="afy4YtuaF23AHe6gDH-i-16" value="" style="ellipse;whiteSpace=wrap;html=1;aspect=fixed;strokeColor=#b85450;fillColor=#f8cecc;strokeWidth=2;" vertex="1" parent="afy4YtuaF23AHe6gDH-i-22">
          <mxGeometry x="10" y="72" width="40" height="40" as="geometry"/>
        </mxCell>
        <mxCell id="afy4YtuaF23AHe6gDH-i-17" value="" style="ellipse;whiteSpace=wrap;html=1;aspect=fixed;strokeColor=#b85450;fillColor=#f8cecc;strokeWidth=2;" vertex="1" parent="afy4YtuaF23AHe6gDH-i-22">
          <mxGeometry x="10" y="180" width="40" height="40" as="geometry"/>
        </mxCell>
        <mxCell id="afy4YtuaF23AHe6gDH-i-19" value="&lt;font style=&quot;font-size: 26px&quot; face=&quot;Times New Roman&quot;&gt;&lt;b&gt;...&lt;/b&gt;&lt;/font&gt;" style="text;html=1;strokeColor=none;fillColor=none;align=center;verticalAlign=middle;whiteSpace=wrap;rounded=0;" vertex="1" parent="afy4YtuaF23AHe6gDH-i-22">
          <mxGeometry x="10" y="132" width="40" height="24" as="geometry"/>
        </mxCell>
        <mxCell id="afy4YtuaF23AHe6gDH-i-23" value="" style="endArrow=block;html=1;strokeWidth=2;endFill=1;" edge="1" parent="afy4YtuaF23AHe6gDH-i-33">
          <mxGeometry width="50" height="50" relative="1" as="geometry">
            <mxPoint y="200" as="sourcePoint"/>
            <mxPoint x="80" y="200" as="targetPoint"/>
          </mxGeometry>
        </mxCell>
        <mxCell id="afy4YtuaF23AHe6gDH-i-30" value="" style="endArrow=block;html=1;strokeWidth=2;endFill=1;exitX=0.5;exitY=0;exitDx=0;exitDy=0;entryX=0.5;entryY=1;entryDx=0;entryDy=0;" edge="1" parent="afy4YtuaF23AHe6gDH-i-33" source="afy4YtuaF23AHe6gDH-i-14" target="afy4YtuaF23AHe6gDH-i-10">
          <mxGeometry width="50" height="50" relative="1" as="geometry">
            <mxPoint x="40" y="210" as="sourcePoint"/>
            <mxPoint x="120" y="20" as="targetPoint"/>
          </mxGeometry>
        </mxCell>
        <mxCell id="afy4YtuaF23AHe6gDH-i-34" value="" style="group" vertex="1" connectable="0" parent="1">
          <mxGeometry x="220" y="80" width="160" height="320" as="geometry"/>
        </mxCell>
        <mxCell id="afy4YtuaF23AHe6gDH-i-35" value="&lt;p style=&quot;font-size: 32px&quot;&gt;&lt;font style=&quot;font-size: 32px&quot; face=&quot;Times New Roman&quot;&gt;$$a^{&amp;lt;1&amp;gt;}$$&lt;/font&gt;&lt;/p&gt;" style="text;html=1;strokeColor=none;fillColor=none;align=center;verticalAlign=middle;whiteSpace=wrap;rounded=0;textDirection=ltr;" vertex="1" parent="afy4YtuaF23AHe6gDH-i-34">
          <mxGeometry x="10" y="160" width="60" height="40" as="geometry"/>
        </mxCell>
        <mxCell id="afy4YtuaF23AHe6gDH-i-36" value="&lt;p style=&quot;font-size: 32px&quot;&gt;&lt;font style=&quot;font-size: 32px&quot; face=&quot;Times New Roman&quot;&gt;$$y^{&amp;lt;2&amp;gt;}$$&lt;/font&gt;&lt;/p&gt;" style="text;html=1;strokeColor=none;fillColor=none;align=center;verticalAlign=middle;whiteSpace=wrap;rounded=0;textDirection=ltr;" vertex="1" parent="afy4YtuaF23AHe6gDH-i-34">
          <mxGeometry x="80" width="80" height="40" as="geometry"/>
        </mxCell>
        <mxCell id="afy4YtuaF23AHe6gDH-i-37" value="" style="group" vertex="1" connectable="0" parent="afy4YtuaF23AHe6gDH-i-34">
          <mxGeometry x="90" y="80" width="60" height="240" as="geometry"/>
        </mxCell>
        <mxCell id="afy4YtuaF23AHe6gDH-i-38" value="" style="rounded=0;whiteSpace=wrap;html=1;" vertex="1" parent="afy4YtuaF23AHe6gDH-i-37">
          <mxGeometry width="60" height="240" as="geometry"/>
        </mxCell>
        <mxCell id="afy4YtuaF23AHe6gDH-i-39" value="" style="ellipse;whiteSpace=wrap;html=1;aspect=fixed;strokeColor=#b85450;fillColor=#f8cecc;strokeWidth=2;" vertex="1" parent="afy4YtuaF23AHe6gDH-i-37">
          <mxGeometry x="10" y="12" width="40" height="40" as="geometry"/>
        </mxCell>
        <mxCell id="afy4YtuaF23AHe6gDH-i-40" value="" style="ellipse;whiteSpace=wrap;html=1;aspect=fixed;strokeColor=#b85450;fillColor=#f8cecc;strokeWidth=2;" vertex="1" parent="afy4YtuaF23AHe6gDH-i-37">
          <mxGeometry x="10" y="72" width="40" height="40" as="geometry"/>
        </mxCell>
        <mxCell id="afy4YtuaF23AHe6gDH-i-41" value="" style="ellipse;whiteSpace=wrap;html=1;aspect=fixed;strokeColor=#b85450;fillColor=#f8cecc;strokeWidth=2;" vertex="1" parent="afy4YtuaF23AHe6gDH-i-37">
          <mxGeometry x="10" y="180" width="40" height="40" as="geometry"/>
        </mxCell>
        <mxCell id="afy4YtuaF23AHe6gDH-i-42" value="&lt;font style=&quot;font-size: 26px&quot; face=&quot;Times New Roman&quot;&gt;&lt;b&gt;...&lt;/b&gt;&lt;/font&gt;" style="text;html=1;strokeColor=none;fillColor=none;align=center;verticalAlign=middle;whiteSpace=wrap;rounded=0;" vertex="1" parent="afy4YtuaF23AHe6gDH-i-37">
          <mxGeometry x="10" y="132" width="40" height="24" as="geometry"/>
        </mxCell>
        <mxCell id="afy4YtuaF23AHe6gDH-i-43" value="" style="endArrow=block;html=1;strokeWidth=2;endFill=1;" edge="1" parent="afy4YtuaF23AHe6gDH-i-34">
          <mxGeometry width="50" height="50" relative="1" as="geometry">
            <mxPoint y="200" as="sourcePoint"/>
            <mxPoint x="80" y="200" as="targetPoint"/>
          </mxGeometry>
        </mxCell>
        <mxCell id="afy4YtuaF23AHe6gDH-i-44" value="" style="endArrow=block;html=1;strokeWidth=2;endFill=1;exitX=0.5;exitY=0;exitDx=0;exitDy=0;entryX=0.5;entryY=1;entryDx=0;entryDy=0;" edge="1" parent="afy4YtuaF23AHe6gDH-i-34" source="afy4YtuaF23AHe6gDH-i-38" target="afy4YtuaF23AHe6gDH-i-36">
          <mxGeometry width="50" height="50" relative="1" as="geometry">
            <mxPoint x="40" y="210" as="sourcePoint"/>
            <mxPoint x="120" y="20" as="targetPoint"/>
          </mxGeometry>
        </mxCell>
        <mxCell id="afy4YtuaF23AHe6gDH-i-46" value="" style="group;container=1;" vertex="1" connectable="0" parent="1">
          <mxGeometry x="390" y="80" width="160" height="320" as="geometry"/>
        </mxCell>
        <mxCell id="afy4YtuaF23AHe6gDH-i-47" value="&lt;p style=&quot;font-size: 32px&quot;&gt;&lt;font style=&quot;font-size: 32px&quot; face=&quot;Times New Roman&quot;&gt;$$a^{&amp;lt;2&amp;gt;}$$&lt;/font&gt;&lt;/p&gt;" style="text;html=1;strokeColor=none;fillColor=none;align=center;verticalAlign=middle;whiteSpace=wrap;rounded=0;textDirection=ltr;" vertex="1" parent="afy4YtuaF23AHe6gDH-i-46">
          <mxGeometry x="10" y="160" width="60" height="40" as="geometry"/>
        </mxCell>
        <mxCell id="afy4YtuaF23AHe6gDH-i-55" value="" style="endArrow=block;html=1;strokeWidth=2;endFill=1;" edge="1" parent="afy4YtuaF23AHe6gDH-i-46">
          <mxGeometry width="50" height="50" relative="1" as="geometry">
            <mxPoint y="200" as="sourcePoint"/>
            <mxPoint x="80" y="200" as="targetPoint"/>
          </mxGeometry>
        </mxCell>
        <mxCell id="afy4YtuaF23AHe6gDH-i-73" value="&lt;font style=&quot;font-size: 26px&quot; face=&quot;Times New Roman&quot;&gt;&lt;b&gt;...&lt;/b&gt;&lt;/font&gt;" style="text;html=1;strokeColor=none;fillColor=none;align=center;verticalAlign=middle;whiteSpace=wrap;rounded=0;" vertex="1" parent="afy4YtuaF23AHe6gDH-i-46">
          <mxGeometry x="90" y="176" width="40" height="24" as="geometry"/>
        </mxCell>
        <mxCell id="afy4YtuaF23AHe6gDH-i-57" value="" style="group" vertex="1" connectable="0" parent="1">
          <mxGeometry x="550" y="80" width="160" height="320" as="geometry"/>
        </mxCell>
        <mxCell id="afy4YtuaF23AHe6gDH-i-58" value="&lt;p style=&quot;font-size: 32px&quot;&gt;&lt;font style=&quot;font-size: 32px&quot; face=&quot;Times New Roman&quot;&gt;$$a^{&amp;lt;T_x-1&amp;gt;}$$&lt;/font&gt;&lt;/p&gt;" style="text;html=1;strokeColor=none;fillColor=none;align=center;verticalAlign=middle;whiteSpace=wrap;rounded=0;textDirection=ltr;" vertex="1" parent="afy4YtuaF23AHe6gDH-i-57">
          <mxGeometry y="160" width="60" height="40" as="geometry"/>
        </mxCell>
        <mxCell id="afy4YtuaF23AHe6gDH-i-59" value="&lt;p style=&quot;font-size: 32px&quot;&gt;&lt;font style=&quot;font-size: 32px&quot; face=&quot;Times New Roman&quot;&gt;$$y^{&amp;lt;T_y&amp;gt;}$$&lt;/font&gt;&lt;/p&gt;" style="text;html=1;strokeColor=none;fillColor=none;align=center;verticalAlign=middle;whiteSpace=wrap;rounded=0;textDirection=ltr;" vertex="1" parent="afy4YtuaF23AHe6gDH-i-57">
          <mxGeometry x="80" width="80" height="40" as="geometry"/>
        </mxCell>
        <mxCell id="afy4YtuaF23AHe6gDH-i-60" value="" style="group" vertex="1" connectable="0" parent="afy4YtuaF23AHe6gDH-i-57">
          <mxGeometry x="90" y="80" width="60" height="240" as="geometry"/>
        </mxCell>
        <mxCell id="afy4YtuaF23AHe6gDH-i-61" value="" style="rounded=0;whiteSpace=wrap;html=1;" vertex="1" parent="afy4YtuaF23AHe6gDH-i-60">
          <mxGeometry width="60" height="240" as="geometry"/>
        </mxCell>
        <mxCell id="afy4YtuaF23AHe6gDH-i-62" value="" style="ellipse;whiteSpace=wrap;html=1;aspect=fixed;strokeColor=#b85450;fillColor=#f8cecc;strokeWidth=2;" vertex="1" parent="afy4YtuaF23AHe6gDH-i-60">
          <mxGeometry x="10" y="12" width="40" height="40" as="geometry"/>
        </mxCell>
        <mxCell id="afy4YtuaF23AHe6gDH-i-63" value="" style="ellipse;whiteSpace=wrap;html=1;aspect=fixed;strokeColor=#b85450;fillColor=#f8cecc;strokeWidth=2;" vertex="1" parent="afy4YtuaF23AHe6gDH-i-60">
          <mxGeometry x="10" y="72" width="40" height="40" as="geometry"/>
        </mxCell>
        <mxCell id="afy4YtuaF23AHe6gDH-i-64" value="" style="ellipse;whiteSpace=wrap;html=1;aspect=fixed;strokeColor=#b85450;fillColor=#f8cecc;strokeWidth=2;" vertex="1" parent="afy4YtuaF23AHe6gDH-i-60">
          <mxGeometry x="10" y="180" width="40" height="40" as="geometry"/>
        </mxCell>
        <mxCell id="afy4YtuaF23AHe6gDH-i-65" value="&lt;font style=&quot;font-size: 26px&quot; face=&quot;Times New Roman&quot;&gt;&lt;b&gt;...&lt;/b&gt;&lt;/font&gt;" style="text;html=1;strokeColor=none;fillColor=none;align=center;verticalAlign=middle;whiteSpace=wrap;rounded=0;" vertex="1" parent="afy4YtuaF23AHe6gDH-i-60">
          <mxGeometry x="10" y="132" width="40" height="24" as="geometry"/>
        </mxCell>
        <mxCell id="afy4YtuaF23AHe6gDH-i-66" value="" style="endArrow=block;html=1;strokeWidth=2;endFill=1;" edge="1" parent="afy4YtuaF23AHe6gDH-i-57">
          <mxGeometry width="50" height="50" relative="1" as="geometry">
            <mxPoint y="200" as="sourcePoint"/>
            <mxPoint x="80" y="200" as="targetPoint"/>
          </mxGeometry>
        </mxCell>
        <mxCell id="afy4YtuaF23AHe6gDH-i-67" value="" style="endArrow=block;html=1;strokeWidth=2;endFill=1;exitX=0.5;exitY=0;exitDx=0;exitDy=0;entryX=0.5;entryY=1;entryDx=0;entryDy=0;" edge="1" parent="afy4YtuaF23AHe6gDH-i-57" source="afy4YtuaF23AHe6gDH-i-61" target="afy4YtuaF23AHe6gDH-i-59">
          <mxGeometry width="50" height="50" relative="1" as="geometry">
            <mxPoint x="40" y="210" as="sourcePoint"/>
            <mxPoint x="120" y="20" as="targetPoint"/>
          </mxGeometry>
        </mxCell>
        <mxCell id="afy4YtuaF23AHe6gDH-i-68" value="" style="endArrow=block;html=1;strokeWidth=2;endFill=1;entryX=0.5;entryY=1;entryDx=0;entryDy=0;exitX=0.5;exitY=0;exitDx=0;exitDy=0;" edge="1" parent="1" source="afy4YtuaF23AHe6gDH-i-1" target="afy4YtuaF23AHe6gDH-i-14">
          <mxGeometry width="50" height="50" relative="1" as="geometry">
            <mxPoint x="180" y="440" as="sourcePoint"/>
            <mxPoint x="220" y="420" as="targetPoint"/>
          </mxGeometry>
        </mxCell>
        <mxCell id="afy4YtuaF23AHe6gDH-i-69" value="&lt;p style=&quot;font-size: 32px&quot;&gt;&lt;font style=&quot;font-size: 32px&quot; face=&quot;Times New Roman&quot;&gt;$$x^{&amp;lt;2&amp;gt;}$$&lt;/font&gt;&lt;/p&gt;" style="text;html=1;strokeColor=none;fillColor=none;align=center;verticalAlign=middle;whiteSpace=wrap;rounded=0;textDirection=ltr;" vertex="1" parent="1">
          <mxGeometry x="300" y="440" width="80" height="40" as="geometry"/>
        </mxCell>
        <mxCell id="afy4YtuaF23AHe6gDH-i-70" value="" style="endArrow=block;html=1;strokeWidth=2;endFill=1;entryX=0.5;entryY=1;entryDx=0;entryDy=0;exitX=0.5;exitY=0;exitDx=0;exitDy=0;" edge="1" source="afy4YtuaF23AHe6gDH-i-69" parent="1">
          <mxGeometry width="50" height="50" relative="1" as="geometry">
            <mxPoint x="340" y="440" as="sourcePoint"/>
            <mxPoint x="340" y="400" as="targetPoint"/>
          </mxGeometry>
        </mxCell>
        <mxCell id="afy4YtuaF23AHe6gDH-i-71" value="&lt;p style=&quot;font-size: 32px&quot;&gt;&lt;font style=&quot;font-size: 32px&quot; face=&quot;Times New Roman&quot;&gt;$$x^{&amp;lt;T_x&amp;gt;}$$&lt;/font&gt;&lt;/p&gt;" style="text;html=1;strokeColor=none;fillColor=none;align=center;verticalAlign=middle;whiteSpace=wrap;rounded=0;textDirection=ltr;" vertex="1" parent="1">
          <mxGeometry x="630" y="440" width="80" height="40" as="geometry"/>
        </mxCell>
        <mxCell id="afy4YtuaF23AHe6gDH-i-72" value="" style="endArrow=block;html=1;strokeWidth=2;endFill=1;entryX=0.5;entryY=1;entryDx=0;entryDy=0;exitX=0.5;exitY=0;exitDx=0;exitDy=0;" edge="1" source="afy4YtuaF23AHe6gDH-i-71" parent="1">
          <mxGeometry width="50" height="50" relative="1" as="geometry">
            <mxPoint x="670" y="440" as="sourcePoint"/>
            <mxPoint x="670" y="400" as="targetPoint"/>
          </mxGeometry>
        </mxCell>
      </root>
    </mxGraphModel>
  </diagram>
</mxfile>
